Saira-PARAMETRIC-JUN_XTUD44.ufo
<glyph name="asterisk" format="2">
  <advance width="442.34783"/>
  <unicode hex="002A"/>
  <outline>
    <contour>
      <point x="193.478" y="320.457" type="line"/>
      <point x="248.87" y="320.457" type="line"/>
      <point x="241.696" y="467.5" type="line"/>
      <point x="366.913" y="386.761" type="line"/>
      <point x="394.065" y="436.609" type="line"/>
      <point x="262.217" y="503.457" type="line"/>
      <point x="394.065" y="571.848" type="line"/>
      <point x="366.913" y="621.152" type="line"/>
      <point x="240.696" y="540.5" type="line"/>
      <point x="248.87" y="688" type="line"/>
      <point x="193.478" y="688" type="line"/>
      <point x="200.652" y="539.957" type="line"/>
      <point x="75.435" y="621.152" type="line"/>
      <point x="47.739" y="571.848" type="line"/>
      <point x="180.13" y="503.457" type="line"/>
      <point x="47.739" y="436.609" type="line"/>
      <point x="75.435" y="386.761" type="line"/>
      <point x="200.652" y="467.5" type="line"/>
    </contour>
  </outline>
</glyph>
<glyph name="B" format="2">
  <advance width="699"/>
  <unicode hex="0042"/>
  <anchor x="341" y="0" name="bottom"/>
  <anchor x="341" y="688" name="top"/>
  <outline>
    <contour>
      <point x="100" y="0" type="line"/>
      <point x="366" y="0" type="line" smooth="yes"/>
      <point x="561" y="0"/>
      <point x="614" y="40"/>
      <point x="614" y="190" type="curve" smooth="yes"/>
      <point x="614" y="197" type="line" smooth="yes"/>
      <point x="614" y="335"/>
      <point x="560" y="375"/>
      <point x="366" y="375" type="curve" smooth="yes"/>
      <point x="166" y="375" type="line"/>
      <point x="166" y="315" type="line"/>
      <point x="366" y="315" type="line" smooth="yes"/>
      <point x="507" y="315"/>
      <point x="532" y="299"/>
      <point x="532" y="211" type="curve" smooth="yes"/>
      <point x="532" y="176" type="line" smooth="yes"/>
      <point x="532" y="89"/>
      <point x="507" y="74"/>
      <point x="366" y="74" type="curve" smooth="yes"/>
      <point x="145" y="74" type="line"/>
      <point x="182" y="43" type="line"/>
      <point x="182" y="645" type="line"/>
      <point x="145" y="614" type="line"/>
      <point x="352" y="614" type="line" smooth="yes"/>
      <point x="493" y="614"/>
      <point x="518" y="600"/>
      <point x="518" y="518" type="curve" smooth="yes"/>
      <point x="518" y="483" type="line" smooth="yes"/>
      <point x="518" y="400"/>
      <point x="493" y="385"/>
      <point x="352" y="385" type="curve" smooth="yes"/>
      <point x="166" y="385" type="line"/>
      <point x="166" y="325" type="line"/>
      <point x="352" y="325" type="line" smooth="yes"/>
      <point x="546" y="325"/>
      <point x="600" y="364"/>
      <point x="600" y="497" type="curve" smooth="yes"/>
      <point x="600" y="504" type="line" smooth="yes"/>
      <point x="600" y="649"/>
      <point x="547" y="688"/>
      <point x="352" y="688" type="curve" smooth="yes"/>
      <point x="100" y="688" type="line"/>
    </contour>
  </outline>
</glyph>
<glyph name="D" format="2">
  <advance width="680"/>
  <unicode hex="0044"/>
  <anchor x="340" y="0" name="bottom"/>
  <anchor x="170" y="344" name="center"/>
  <anchor x="340" y="688" name="top"/>
  <outline>
    <contour>
      <point x="100" y="0" type="line"/>
      <point x="326" y="0" type="line" smooth="yes"/>
      <point x="562" y="0"/>
      <point x="604" y="51"/>
      <point x="604" y="339" type="curve" smooth="yes"/>
      <point x="604" y="349" type="line" smooth="yes"/>
      <point x="604" y="637"/>
      <point x="562" y="688"/>
      <point x="326" y="688" type="curve" smooth="yes"/>
      <point x="100" y="688" type="line"/>
    </contour>
    <contour>
      <point x="182" y="37" type="line"/>
      <point x="182" y="651" type="line"/>
      <point x="145" y="614" type="line"/>
      <point x="326" y="614" type="line" smooth="yes"/>
      <point x="509" y="614"/>
      <point x="522" y="597"/>
      <point x="522" y="377" type="curve" smooth="yes"/>
      <point x="522" y="311" type="line" smooth="yes"/>
      <point x="522" y="91"/>
      <point x="509" y="74"/>
      <point x="326" y="74" type="curve" smooth="yes"/>
      <point x="145" y="74" type="line"/>
    </contour>
  </outline>
</glyph>
<glyph name="E" format="2">
  <advance width="593"/>
  <unicode hex="0045"/>
  <anchor x="297" y="0" name="bottom"/>
  <anchor x="534" y="10" name="ogonek"/>
  <anchor x="297" y="688" name="top"/>
  <anchor x="20" y="688" name="topleft"/>
  <outline>
    <contour>
      <point x="145" y="385" type="line"/>
      <point x="145" y="311" type="line"/>
      <point x="496" y="311" type="line"/>
      <point x="496" y="385" type="line"/>
    </contour>
    <contour>
      <point x="182" y="37" type="line"/>
      <point x="182" y="651" type="line"/>
      <point x="145" y="614" type="line"/>
      <point x="543" y="614" type="line"/>
      <point x="543" y="688" type="line"/>
      <point x="100" y="688" type="line"/>
      <point x="100" y="0" type="line"/>
      <point x="543" y="0" type="line"/>
      <point x="543" y="74" type="line"/>
      <point x="145" y="74" type="line"/>
    </contour>
  </outline>
</glyph>
<glyph name="G" format="2">
  <advance width="679"/>
  <unicode hex="0047"/>
  <anchor x="340" y="0" name="bottom"/>
  <anchor x="340" y="688" name="top"/>
  <outline>
    <contour>
      <point x="398" y="-8" type="curve" smooth="yes"/>
      <point x="467" y="-8"/>
      <point x="542" y="1"/>
      <point x="584" y="15" type="curve"/>
      <point x="584" y="370" type="line"/>
      <point x="345" y="370" type="line"/>
      <point x="345" y="300" type="line"/>
      <point x="504" y="300" type="line"/>
      <point x="504" y="72" type="line"/>
      <point x="468" y="68"/>
      <point x="431" y="66"/>
      <point x="393" y="66" type="curve" smooth="yes"/>
      <point x="174" y="66"/>
      <point x="158" y="83"/>
      <point x="158" y="310" type="curve" smooth="yes"/>
      <point x="158" y="378" type="line" smooth="yes"/>
      <point x="158" y="605"/>
      <point x="174" y="622"/>
      <point x="393" y="622" type="curve" smooth="yes"/>
      <point x="461" y="622"/>
      <point x="527" y="618"/>
      <point x="579" y="612" type="curve"/>
      <point x="579" y="681" type="line"/>
      <point x="537" y="690"/>
      <point x="461" y="696"/>
      <point x="398" y="696" type="curve" smooth="yes"/>
      <point x="125" y="696"/>
      <point x="76" y="644"/>
      <point x="76" y="349" type="curve" smooth="yes"/>
      <point x="76" y="339" type="line" smooth="yes"/>
      <point x="76" y="44"/>
      <point x="125" y="-8"/>
    </contour>
  </outline>
</glyph>
<glyph name="J" format="2">
  <advance width="319"/>
  <unicode hex="004A"/>
  <anchor x="160" y="0" name="bottom"/>
  <anchor x="160" y="688" name="top"/>
  <outline>
    <contour>
      <point x="219" y="688" type="line"/>
      <point x="137" y="688" type="line"/>
      <point x="137" y="141" type="line" smooth="yes"/>
      <point x="137" y="78"/>
      <point x="116" y="66"/>
      <point x="5" y="66" type="curve"/>
      <point x="5" y="-4" type="line"/>
      <point x="172" y="-4"/>
      <point x="219" y="29"/>
      <point x="219" y="148" type="curve" smooth="yes"/>
    </contour>
  </outline>
</glyph>
<glyph name="M" format="2">
  <advance width="840"/>
  <unicode hex="004D"/>
  <outline>
    <contour>
      <point x="100" y="0" type="line"/>
      <point x="182" y="0" type="line"/>
      <point x="182" y="580" type="line"/>
      <point x="378" y="0" type="line"/>
      <point x="462" y="0" type="line"/>
      <point x="658" y="580" type="line"/>
      <point x="658" y="0" type="line"/>
      <point x="740" y="0" type="line"/>
      <point x="739" y="688" type="line"/>
      <point x="618" y="688" type="line"/>
      <point x="420" y="95" type="line"/>
      <point x="221" y="688" type="line"/>
      <point x="100" y="688" type="line"/>
    </contour>
  </outline>
</glyph>
<glyph name="N" format="2">
  <advance width="714"/>
  <unicode hex="004E"/>
  <anchor x="357" y="0" name="bottom"/>
  <anchor x="357" y="688" name="top"/>
  <outline>
    <contour>
      <point x="100" y="0" type="line"/>
      <point x="182" y="0" type="line"/>
      <point x="182" y="543" type="line"/>
      <point x="527" y="0" type="line"/>
      <point x="614" y="0" type="line"/>
      <point x="614" y="688" type="line"/>
      <point x="532" y="688" type="line"/>
      <point x="532" y="145" type="line"/>
      <point x="187" y="688" type="line"/>
      <point x="100" y="688" type="line"/>
    </contour>
  </outline>
</glyph>
<glyph name="P" format="2">
  <advance width="585"/>
  <unicode hex="0050"/>
  <anchor x="293" y="0" name="bottom"/>
  <anchor x="293" y="688" name="top"/>
  <outline>
    <contour>
      <point x="100" y="0" type="line"/>
      <point x="182" y="0" type="line"/>
      <point x="182" y="645" type="line"/>
      <point x="145" y="614" type="line"/>
      <point x="307" y="614" type="line" smooth="yes"/>
      <point x="463" y="614"/>
      <point x="473" y="605"/>
      <point x="473" y="485" type="curve" smooth="yes"/>
      <point x="473" y="450" type="line" smooth="yes"/>
      <point x="473" y="330"/>
      <point x="463" y="321"/>
      <point x="307" y="321" type="curve" smooth="yes"/>
      <point x="166" y="321" type="line"/>
      <point x="166" y="247" type="line"/>
      <point x="307" y="247" type="line" smooth="yes"/>
      <point x="518" y="247"/>
      <point x="555" y="280"/>
      <point x="555" y="464" type="curve" smooth="yes"/>
      <point x="555" y="471" type="line" smooth="yes"/>
      <point x="555" y="655"/>
      <point x="518" y="688"/>
      <point x="307" y="688" type="curve" smooth="yes"/>
      <point x="100" y="688" type="line"/>
    </contour>
  </outline>
</glyph>
<glyph name="R" format="2">
  <advance width="640"/>
  <unicode hex="0052"/>
  <anchor x="320" y="0" name="bottom"/>
  <anchor x="320" y="688" name="top"/>
  <outline>
    <contour>
      <point x="100" y="0" type="line"/>
      <point x="182" y="0" type="line"/>
      <point x="182" y="645" type="line"/>
      <point x="145" y="614" type="line"/>
      <point x="317" y="614" type="line" smooth="yes"/>
      <point x="478" y="614"/>
      <point x="483" y="610"/>
      <point x="483" y="494" type="curve" smooth="yes"/>
      <point x="483" y="461" type="line" smooth="yes"/>
      <point x="483" y="345"/>
      <point x="478" y="341"/>
      <point x="317" y="341" type="curve" smooth="yes"/>
      <point x="166" y="341" type="line"/>
      <point x="166" y="267" type="line"/>
      <point x="317" y="267" type="line" smooth="yes"/>
      <point x="527" y="267"/>
      <point x="565" y="298"/>
      <point x="565" y="474" type="curve" smooth="yes"/>
      <point x="565" y="481" type="line" smooth="yes"/>
      <point x="565" y="657"/>
      <point x="527" y="688"/>
      <point x="317" y="688" type="curve" smooth="yes"/>
      <point x="100" y="688" type="line"/>
    </contour>
    <contour>
      <point x="486" y="0" type="line"/>
      <point x="575" y="0" type="line"/>
      <point x="458" y="289" type="line"/>
      <point x="372" y="289" type="line"/>
    </contour>
  </outline>
</glyph>
<glyph name="S" format="2">
  <advance width="636"/>
  <unicode hex="0053"/>
  <anchor x="318" y="0" name="bottom"/>
  <anchor x="318" y="688" name="top"/>
  <outline>
    <contour>
      <point x="323" y="-8" type="curve" smooth="yes"/>
      <point x="508" y="-8"/>
      <point x="565" y="41"/>
      <point x="565" y="198" type="curve" smooth="yes"/>
      <point x="565" y="319"/>
      <point x="529" y="363"/>
      <point x="418" y="375" type="curve" smooth="yes"/>
      <point x="236" y="395" type="line" smooth="yes"/>
      <point x="166" y="404"/>
      <point x="153" y="420"/>
      <point x="153" y="494" type="curve" smooth="yes"/>
      <point x="153" y="601"/>
      <point x="178" y="622"/>
      <point x="309" y="622" type="curve" smooth="yes"/>
      <point x="382" y="622"/>
      <point x="472" y="615"/>
      <point x="537" y="605" type="curve"/>
      <point x="537" y="677" type="line"/>
      <point x="458" y="688"/>
      <point x="369" y="696"/>
      <point x="313" y="696" type="curve" smooth="yes"/>
      <point x="130" y="696"/>
      <point x="71" y="648"/>
      <point x="71" y="496" type="curve" smooth="yes"/>
      <point x="71" y="377"/>
      <point x="110" y="330"/>
      <point x="216" y="319" type="curve" smooth="yes"/>
      <point x="398" y="299" type="line" smooth="yes"/>
      <point x="473" y="289"/>
      <point x="483" y="278"/>
      <point x="483" y="198" type="curve" smooth="yes"/>
      <point x="483" y="88"/>
      <point x="456" y="66"/>
      <point x="325" y="66" type="curve" smooth="yes"/>
      <point x="246" y="66"/>
      <point x="148" y="73"/>
      <point x="77" y="83" type="curve"/>
      <point x="77" y="11" type="line"/>
      <point x="165" y="-1"/>
      <point x="262" y="-8"/>
    </contour>
  </outline>
</glyph>
<glyph name="T" format="2">
  <advance width="522"/>
  <unicode hex="0054"/>
  <anchor x="261" y="0" name="bottom"/>
  <anchor x="261" y="344" name="center"/>
  <anchor x="261" y="688" name="top"/>
  <outline>
    <contour>
      <point x="220" y="0" type="line"/>
      <point x="302" y="0" type="line"/>
      <point x="302" y="649" type="line"/>
      <point x="267" y="612" type="line"/>
      <point x="512" y="612" type="line"/>
      <point x="512" y="688" type="line"/>
      <point x="10" y="688" type="line"/>
      <point x="10" y="612" type="line"/>
      <point x="255" y="612" type="line"/>
      <point x="220" y="649" type="line"/>
    </contour>
  </outline>
</glyph>
<glyph name="U" format="2">
  <advance width="704"/>
  <unicode hex="0055"/>
  <anchor x="352" y="0" name="bottom"/>
  <anchor x="634" y="10" name="ogonek"/>
  <anchor x="352" y="688" name="top"/>
  <anchor x="684" y="688" name="topright"/>
  <outline>
    <contour>
      <point x="352" y="-8" type="curve" smooth="yes"/>
      <point x="570" y="-8"/>
      <point x="609" y="50"/>
      <point x="609" y="326" type="curve" smooth="yes"/>
      <point x="609" y="688" type="line"/>
      <point x="527" y="688" type="line"/>
      <point x="527" y="297" type="line" smooth="yes"/>
      <point x="527" y="91"/>
      <point x="515" y="68"/>
      <point x="352" y="68" type="curve" smooth="yes"/>
      <point x="189" y="68"/>
      <point x="177" y="91"/>
      <point x="177" y="297" type="curve" smooth="yes"/>
      <point x="177" y="688" type="line"/>
      <point x="95" y="688" type="line"/>
      <point x="95" y="326" type="line" smooth="yes"/>
      <point x="95" y="51"/>
      <point x="134" y="-8"/>
    </contour>
  </outline>
</glyph>
<glyph name="V" format="2">
  <advance width="578"/>
  <unicode hex="0056"/>
  <outline>
    <contour>
      <point x="230" y="0" type="line"/>
      <point x="348" y="0" type="line"/>
      <point x="568" y="688" type="line"/>
      <point x="482" y="688" type="line"/>
      <point x="289" y="76" type="line"/>
      <point x="96" y="688" type="line"/>
      <point x="10" y="688" type="line"/>
    </contour>
  </outline>
</glyph>
<glyph name="W" format="2">
  <advance width="852"/>
  <unicode hex="0057"/>
  <outline>
    <contour>
      <point x="169" y="0" type="line"/>
      <point x="257" y="0" type="line"/>
      <point x="426" y="608" type="line"/>
      <point x="595" y="0" type="line"/>
      <point x="683" y="0" type="line"/>
      <point x="842" y="688" type="line"/>
      <point x="762" y="688" type="line"/>
      <point x="621" y="73" type="line"/>
      <point x="449" y="688" type="line"/>
      <point x="403" y="688" type="line"/>
      <point x="231" y="73" type="line"/>
      <point x="90" y="688" type="line"/>
      <point x="10" y="688" type="line"/>
    </contour>
  </outline>
</glyph>
<glyph name="X" format="2">
  <advance width="694"/>
  <unicode hex="0058"/>
  <anchor x="294" y="0" name="bottom"/>
  <anchor x="294" y="510" name="top"/>
  <outline>
    <contour>
      <point x="569" y="0" type="line"/>
      <point x="674" y="0" type="line"/>
      <point x="135" y="688" type="line"/>
      <point x="30" y="688" type="line"/>
    </contour>
    <contour>
      <point x="20" y="0" type="line"/>
      <point x="125" y="0" type="line"/>
      <point x="664" y="688" type="line"/>
      <point x="559" y="688" type="line"/>
    </contour>
  </outline>
</glyph>
<glyph name="Y" format="2">
  <advance width="556"/>
  <unicode hex="0059"/>
  <anchor x="263" y="0" name="bottom"/>
  <anchor x="263" y="688" name="top"/>
  <anchor x="-30" y="688" name="topleft"/>
  <outline>
    <contour>
      <point x="237" y="0" type="line"/>
      <point x="319" y="0" type="line"/>
      <point x="319" y="300" type="line"/>
      <point x="300" y="231" type="line"/>
      <point x="546" y="688" type="line"/>
      <point x="453" y="688" type="line"/>
      <point x="278" y="350" type="line"/>
      <point x="103" y="688" type="line"/>
      <point x="10" y="688" type="line"/>
      <point x="256" y="231" type="line"/>
      <point x="237" y="300" type="line"/>
    </contour>
  </outline>
</glyph>
<glyph name="c" format="2">
  <advance width="472"/>
  <unicode hex="0063"/>
  <anchor x="236" y="0" name="bottom"/>
  <anchor x="236" y="510" name="top"/>
  <outline>
    <contour>
      <point x="289" y="-8" type="curve" smooth="yes"/>
      <point x="339" y="-8"/>
      <point x="396" y="-2"/>
      <point x="430" y="7" type="curve"/>
      <point x="430" y="75" type="line"/>
      <point x="393" y="67"/>
      <point x="332" y="62"/>
      <point x="284" y="62" type="curve" smooth="yes"/>
      <point x="161" y="62"/>
      <point x="152" y="74"/>
      <point x="152" y="231" type="curve" smooth="yes"/>
      <point x="152" y="279" type="line" smooth="yes"/>
      <point x="152" y="436"/>
      <point x="161" y="448"/>
      <point x="284" y="448" type="curve" smooth="yes"/>
      <point x="330" y="448"/>
      <point x="389" y="443"/>
      <point x="425" y="435" type="curve"/>
      <point x="425" y="503" type="line"/>
      <point x="392" y="512"/>
      <point x="337" y="518"/>
      <point x="289" y="518" type="curve" smooth="yes"/>
      <point x="103" y="518"/>
      <point x="70" y="479"/>
      <point x="70" y="259" type="curve" smooth="yes"/>
      <point x="70" y="251" type="line" smooth="yes"/>
      <point x="70" y="31"/>
      <point x="103" y="-8"/>
    </contour>
  </outline>
</glyph>
<glyph name="g" format="2">
  <advance width="619"/>
  <unicode hex="0067"/>
  <anchor x="301" y="-200" name="bottom"/>
  <anchor x="464" y="-84" name="center"/>
  <anchor x="301" y="510" name="top"/>
  <outline>
    <contour>
      <point x="304" y="-208" type="curve" smooth="yes"/>
      <point x="487" y="-208"/>
      <point x="519" y="-169"/>
      <point x="519" y="51" type="curve" smooth="yes"/>
      <point x="519" y="510" type="line"/>
      <point x="446" y="510" type="line"/>
      <point x="437" y="437" type="line"/>
      <point x="433" y="437" type="line"/>
      <point x="408" y="493"/>
      <point x="352" y="518"/>
      <point x="254" y="518" type="curve" smooth="yes"/>
      <point x="97" y="518"/>
      <point x="70" y="479"/>
      <point x="70" y="259" type="curve" smooth="yes"/>
      <point x="70" y="251" type="line" smooth="yes"/>
      <point x="70" y="31"/>
      <point x="97" y="-8"/>
      <point x="254" y="-8" type="curve" smooth="yes"/>
      <point x="352" y="-8"/>
      <point x="408" y="17"/>
      <point x="433" y="73" type="curve"/>
      <point x="437" y="73" type="line"/>
      <point x="437" y="31" type="line" smooth="yes"/>
      <point x="437" y="-126"/>
      <point x="428" y="-138"/>
      <point x="304" y="-138" type="curve" smooth="yes"/>
      <point x="233" y="-138"/>
      <point x="174" y="-134"/>
      <point x="117" y="-125" type="curve"/>
      <point x="117" y="-193" type="line"/>
      <point x="186" y="-203"/>
      <point x="246" y="-208"/>
    </contour>
    <contour>
      <point x="274" y="62" type="curve" smooth="yes"/>
      <point x="170" y="62"/>
      <point x="152" y="83"/>
      <point x="152" y="203" type="curve" smooth="yes"/>
      <point x="152" y="307" type="line" smooth="yes"/>
      <point x="152" y="427"/>
      <point x="170" y="448"/>
      <point x="274" y="448" type="curve" smooth="yes"/>
      <point x="408" y="448"/>
      <point x="437" y="415"/>
      <point x="437" y="266" type="curve" smooth="yes"/>
      <point x="437" y="244" type="line" smooth="yes"/>
      <point x="437" y="95"/>
      <point x="408" y="62"/>
    </contour>
  </outline>
</glyph>
<glyph name="j" format="2">
  <advance width="282"/>
  <unicode hex="006A"/>
  <anchor x="141" y="-200" name="bottom"/>
  <anchor x="141" y="716" name="top"/>
  <outline>
    <contour>
      <point x="182" y="510" type="line"/>
      <point x="100" y="510" type="line"/>
      <point x="100" y="-55" type="line" smooth="yes"/>
      <point x="100" y="-118"/>
      <point x="79" y="-130"/>
      <point x="-32" y="-130" type="curve"/>
      <point x="-32" y="-200" type="line"/>
      <point x="135" y="-200"/>
      <point x="182" y="-167"/>
      <point x="182" y="-48" type="curve" smooth="yes"/>
    </contour>
    <contour>
      <point x="97" y="628" type="line"/>
      <point x="185" y="628" type="line"/>
      <point x="185" y="716" type="line"/>
      <point x="97" y="716" type="line"/>
    </contour>
  </outline>
</glyph>
<glyph name="k" format="2">
  <advance width="563"/>
  <unicode hex="006B"/>
  <anchor x="291" y="0" name="bottom"/>
  <anchor x="291" y="510" name="top"/>
  <outline>
    <contour>
      <point x="182" y="225" type="line"/>
      <point x="306" y="225" type="line"/>
      <point x="452" y="0" type="line"/>
      <point x="548" y="0" type="line"/>
      <point x="379" y="260" type="line"/>
      <point x="545" y="510" type="line"/>
      <point x="449" y="510" type="line"/>
      <point x="306" y="295" type="line"/>
      <point x="182" y="295" type="line"/>
    </contour>
    <contour>
      <point x="100" y="0" type="line"/>
      <point x="182" y="0" type="line"/>
      <point x="182" y="743" type="line"/>
      <point x="100" y="743" type="line"/>
    </contour>
  </outline>
</glyph>
<glyph name="l" format="2">
  <advance width="282"/>
  <unicode hex="006C"/>
  <anchor x="141" y="0" name="bottom"/>
  <anchor x="141" y="372" name="center"/>
  <anchor x="141" y="743" name="top"/>
  <anchor x="182" y="743" name="topright"/>
  <outline>
    <contour>
      <point x="100" y="0" type="line"/>
      <point x="182" y="0" type="line"/>
      <point x="182" y="743" type="line"/>
      <point x="100" y="743" type="line"/>
    </contour>
  </outline>
</glyph>
<glyph name="p" format="2">
  <advance width="619"/>
  <unicode hex="0070"/>
  <anchor x="310" y="0" name="bottom"/>
  <anchor x="155" y="-84" name="center"/>
  <anchor x="310" y="510" name="top"/>
  <outline>
    <contour>
      <point x="100" y="-233" type="line"/>
      <point x="182" y="-233" type="line"/>
      <point x="182" y="73" type="line"/>
      <point x="186" y="73" type="line"/>
      <point x="211" y="17"/>
      <point x="267" y="-8"/>
      <point x="365" y="-8" type="curve" smooth="yes"/>
      <point x="522" y="-8"/>
      <point x="549" y="31"/>
      <point x="549" y="251" type="curve" smooth="yes"/>
      <point x="549" y="259" type="line" smooth="yes"/>
      <point x="549" y="479"/>
      <point x="522" y="518"/>
      <point x="365" y="518" type="curve" smooth="yes"/>
      <point x="267" y="518"/>
      <point x="211" y="493"/>
      <point x="186" y="437" type="curve"/>
      <point x="182" y="437" type="line"/>
      <point x="173" y="510" type="line"/>
      <point x="100" y="510" type="line"/>
    </contour>
    <contour>
      <point x="345" y="62" type="curve" smooth="yes"/>
      <point x="211" y="62"/>
      <point x="182" y="95"/>
      <point x="182" y="244" type="curve" smooth="yes"/>
      <point x="182" y="266" type="line" smooth="yes"/>
      <point x="182" y="415"/>
      <point x="211" y="448"/>
      <point x="345" y="448" type="curve" smooth="yes"/>
      <point x="449" y="448"/>
      <point x="467" y="427"/>
      <point x="467" y="307" type="curve" smooth="yes"/>
      <point x="467" y="203" type="line" smooth="yes"/>
      <point x="467" y="83"/>
      <point x="449" y="62"/>
    </contour>
  </outline>
</glyph>
<glyph name="q" format="2">
  <advance width="619"/>
  <unicode hex="0071"/>
  <anchor x="310" y="0" name="bottom"/>
  <anchor x="464" y="-84" name="center"/>
  <anchor x="310" y="510" name="top"/>
  <outline>
    <contour>
      <point x="437" y="-233" type="line"/>
      <point x="519" y="-233" type="line"/>
      <point x="519" y="510" type="line"/>
      <point x="446" y="510" type="line"/>
      <point x="437" y="437" type="line"/>
      <point x="433" y="437" type="line"/>
      <point x="408" y="493"/>
      <point x="352" y="518"/>
      <point x="254" y="518" type="curve" smooth="yes"/>
      <point x="97" y="518"/>
      <point x="70" y="479"/>
      <point x="70" y="259" type="curve" smooth="yes"/>
      <point x="70" y="251" type="line" smooth="yes"/>
      <point x="70" y="31"/>
      <point x="97" y="-8"/>
      <point x="254" y="-8" type="curve" smooth="yes"/>
      <point x="352" y="-8"/>
      <point x="408" y="17"/>
      <point x="433" y="73" type="curve"/>
      <point x="437" y="73" type="line"/>
    </contour>
    <contour>
      <point x="274" y="62" type="curve" smooth="yes"/>
      <point x="170" y="62"/>
      <point x="152" y="83"/>
      <point x="152" y="203" type="curve" smooth="yes"/>
      <point x="152" y="307" type="line" smooth="yes"/>
      <point x="152" y="427"/>
      <point x="170" y="448"/>
      <point x="274" y="448" type="curve" smooth="yes"/>
      <point x="408" y="448"/>
      <point x="437" y="415"/>
      <point x="437" y="266" type="curve" smooth="yes"/>
      <point x="437" y="244" type="line" smooth="yes"/>
      <point x="437" y="95"/>
      <point x="408" y="62"/>
    </contour>
  </outline>
</glyph>
<glyph name="t" format="2">
  <advance width="342"/>
  <unicode hex="0074"/>
  <anchor x="180" y="0" name="bottom"/>
  <anchor x="180" y="743" name="top"/>
  <outline>
    <contour>
      <point x="123" y="0" type="line"/>
      <point x="205" y="0" type="line"/>
      <point x="205" y="688" type="line"/>
      <point x="123" y="688" type="line"/>
    </contour>
    <contour>
      <point x="20" y="440" type="line"/>
      <point x="140" y="440" type="line"/>
      <point x="140" y="510" type="line"/>
      <point x="20" y="510" type="line"/>
    </contour>
    <contour>
      <point x="189" y="440" type="line"/>
      <point x="337" y="440" type="line"/>
      <point x="337" y="510" type="line"/>
      <point x="189" y="510" type="line"/>
    </contour>
  </outline>
</glyph>
<glyph name="w" format="2">
  <advance width="690"/>
  <unicode hex="0077"/>
  <anchor x="351" y="0" name="bottom"/>
  <anchor x="351" y="510" name="top"/>
  <outline>
    <contour>
      <point x="151" y="0" type="line"/>
      <point x="211" y="0" type="line"/>
      <point x="345" y="415" type="line"/>
      <point x="479" y="0" type="line"/>
      <point x="539" y="0" type="line"/>
      <point x="665" y="510" type="line"/>
      <point x="581" y="510" type="line"/>
      <point x="487" y="108" type="line"/>
      <point x="483" y="108" type="line"/>
      <point x="353" y="510" type="line"/>
      <point x="337" y="510" type="line"/>
      <point x="207" y="108" type="line"/>
      <point x="203" y="108" type="line"/>
      <point x="109" y="510" type="line"/>
      <point x="25" y="510" type="line"/>
    </contour>
  </outline>
</glyph>
<glyph name="x" format="2">
  <advance width="642"/>
  <unicode hex="0078"/>
  <anchor x="248" y="0" name="bottom"/>
  <anchor x="248" y="510" name="top"/>
  <outline>
    <contour>
      <point x="514" y="0" type="line"/>
      <point x="622" y="0" type="line"/>
      <point x="128" y="510" type="line"/>
      <point x="20" y="510" type="line"/>
    </contour>
    <contour>
      <point x="20" y="0" type="line"/>
      <point x="128" y="0" type="line"/>
      <point x="622" y="510" type="line"/>
      <point x="514" y="510" type="line"/>
    </contour>
  </outline>
</glyph>
<glyph name="y" format="2">
  <advance width="623"/>
  <unicode hex="0079"/>
  <anchor x="312" y="0" name="bottom"/>
  <anchor x="312" y="510" name="top"/>
  <outline>
    <contour>
      <point x="318" y="-208" type="curve" smooth="yes"/>
      <point x="492" y="-208"/>
      <point x="523" y="-169"/>
      <point x="523" y="51" type="curve" smooth="yes"/>
      <point x="523" y="510" type="line"/>
      <point x="441" y="510" type="line"/>
      <point x="441" y="244" type="line" smooth="yes"/>
      <point x="441" y="95"/>
      <point x="424" y="62"/>
      <point x="290" y="62" type="curve" smooth="yes"/>
      <point x="186" y="62"/>
      <point x="177" y="83"/>
      <point x="177" y="203" type="curve" smooth="yes"/>
      <point x="177" y="510" type="line"/>
      <point x="95" y="510" type="line"/>
      <point x="95" y="251" type="line" smooth="yes"/>
      <point x="95" y="31"/>
      <point x="111" y="-8"/>
      <point x="268" y="-8" type="curve" smooth="yes"/>
      <point x="366" y="-8"/>
      <point x="412" y="17"/>
      <point x="437" y="73" type="curve"/>
      <point x="441" y="73" type="line"/>
      <point x="441" y="31" type="line" smooth="yes"/>
      <point x="441" y="-126"/>
      <point x="433" y="-138"/>
      <point x="315" y="-138" type="curve" smooth="yes"/>
      <point x="255" y="-138"/>
      <point x="178" y="-131"/>
      <point x="127" y="-120" type="curve"/>
      <point x="127" y="-188" type="line"/>
      <point x="171" y="-200"/>
      <point x="250" y="-208"/>
    </contour>
  </outline>
</glyph>
<glyph name="z" format="2">
  <advance width="454"/>
  <unicode hex="007A"/>
  <anchor x="233" y="0" name="bottom"/>
  <anchor x="227" y="255" name="center"/>
  <anchor x="233" y="510" name="top"/>
  <outline>
    <contour>
      <point x="25" y="0" type="line"/>
      <point x="429" y="0" type="line"/>
      <point x="429" y="70" type="line"/>
      <point x="131" y="70" type="line"/>
      <point x="131" y="74" type="line"/>
      <point x="427" y="447" type="line"/>
      <point x="427" y="510" type="line"/>
      <point x="37" y="510" type="line"/>
      <point x="37" y="440" type="line"/>
      <point x="321" y="440" type="line"/>
      <point x="321" y="436" type="line"/>
      <point x="25" y="63" type="line"/>
    </contour>
  </outline>
</glyph>
<glyph name="braceleft" format="2">
  <advance width="324.45652"/>
  <unicode hex="007B"/>
  <outline>
    <contour>
      <point x="241.37" y="-150" type="curve"/>
      <point x="304.457" y="-150" type="line"/>
      <point x="254.326" y="-115.261"/>
      <point x="204.348" y="-43.891"/>
      <point x="204.348" y="25" type="curve" smooth="yes"/>
      <point x="204.348" y="146" type="line" smooth="yes"/>
      <point x="204.348" y="223"/>
      <point x="177" y="277"/>
      <point x="106.304" y="293.457" type="curve"/>
      <point x="106.304" y="299.543" type="line"/>
      <point x="177" y="316"/>
      <point x="204.348" y="370"/>
      <point x="204.348" y="446.457" type="curve" smooth="yes"/>
      <point x="204.348" y="568" type="line" smooth="yes"/>
      <point x="204.348" y="636.891"/>
      <point x="254.326" y="708.261"/>
      <point x="304.457" y="743" type="curve"/>
      <point x="241.37" y="743" type="line"/>
      <point x="185.717" y="715.261"/>
      <point x="128.043" y="642.783"/>
      <point x="128.043" y="559.804" type="curve" smooth="yes"/>
      <point x="128.043" y="444.261" type="line" smooth="yes"/>
      <point x="128.043" y="387.239"/>
      <point x="110.739" y="318.609"/>
      <point x="26.739" y="318.609" type="curve"/>
      <point x="26.739" y="273.848" type="line"/>
      <point x="110.739" y="273.848"/>
      <point x="128.043" y="205.217"/>
      <point x="128.043" y="148.739" type="curve" smooth="yes"/>
      <point x="128.043" y="32.652" type="line" smooth="yes"/>
      <point x="128.043" y="-50.326"/>
      <point x="185.717" y="-122.261"/>
    </contour>
  </outline>
</glyph>
<glyph name="braceright" format="2">
  <advance width="324.45652"/>
  <unicode hex="007D"/>
  <outline>
    <contour>
      <point x="19.457" y="-150" type="curve"/>
      <point x="82.543" y="-150" type="line"/>
      <point x="138.196" y="-122.261"/>
      <point x="195.87" y="-50.326"/>
      <point x="195.87" y="32.652" type="curve" smooth="yes"/>
      <point x="195.87" y="148.739" type="line" smooth="yes"/>
      <point x="195.87" y="205.217"/>
      <point x="212.63" y="273.848"/>
      <point x="296.63" y="273.848" type="curve"/>
      <point x="296.63" y="318.609" type="line"/>
      <point x="212.63" y="318.609"/>
      <point x="195.87" y="387.239"/>
      <point x="195.87" y="444.261" type="curve" smooth="yes"/>
      <point x="195.87" y="559.804" type="line" smooth="yes"/>
      <point x="195.87" y="642.783"/>
      <point x="138.196" y="715.261"/>
      <point x="82.543" y="743" type="curve"/>
      <point x="19.457" y="743" type="line"/>
      <point x="69.587" y="708.261"/>
      <point x="119.565" y="636.891"/>
      <point x="119.565" y="568" type="curve" smooth="yes"/>
      <point x="119.565" y="446.457" type="line" smooth="yes"/>
      <point x="119.565" y="370"/>
      <point x="146.913" y="316"/>
      <point x="217.609" y="299.543" type="curve"/>
      <point x="217.609" y="293.457" type="line"/>
      <point x="146.913" y="277"/>
      <point x="119.565" y="223"/>
      <point x="119.565" y="146" type="curve" smooth="yes"/>
      <point x="119.565" y="25" type="line" smooth="yes"/>
      <point x="119.565" y="-43.891"/>
      <point x="69.587" y="-115.261"/>
    </contour>
  </outline>
</glyph>
<glyph name="ordfeminine" format="2">
  <advance width="407.97826"/>
  <unicode hex="00AA"/>
  <outline>
    <contour>
      <point x="162.239" y="314.37" type="curve" smooth="yes"/>
      <point x="204.978" y="314.37"/>
      <point x="256.63" y="318"/>
      <point x="284.261" y="361.283" type="curve"/>
      <point x="288.804" y="361.283" type="line"/>
      <point x="293.804" y="318.37" type="line"/>
      <point x="352.326" y="318.37" type="line"/>
      <point x="352.326" y="551.935" type="line" smooth="yes"/>
      <point x="352.326" y="657.957"/>
      <point x="333.13" y="696"/>
      <point x="199.087" y="696" type="curve" smooth="yes"/>
      <point x="150.348" y="696"/>
      <point x="99.63" y="691.913"/>
      <point x="64.652" y="685.826" type="curve"/>
      <point x="64.652" y="632.63" type="line"/>
      <point x="96.717" y="637.087"/>
      <point x="146.196" y="640.543"/>
      <point x="175.5" y="640.543" type="curve" smooth="yes"/>
      <point x="275.152" y="640.543"/>
      <point x="287.804" y="633.717"/>
      <point x="287.804" y="552.283" type="curve" smooth="yes"/>
      <point x="287.804" y="530.348" type="line"/>
      <point x="242.413" y="531.891"/>
      <point x="176.37" y="533.891"/>
      <point x="153.826" y="533.891" type="curve" smooth="yes"/>
      <point x="63.739" y="533.891"/>
      <point x="41.739" y="506.087"/>
      <point x="41.739" y="423.543" type="curve" smooth="yes"/>
      <point x="41.739" y="338.065"/>
      <point x="79.391" y="314.37"/>
    </contour>
    <contour>
      <point x="185.152" y="365.109" type="curve" smooth="yes"/>
      <point x="117.652" y="365.109"/>
      <point x="103.174" y="376.848"/>
      <point x="103.174" y="427.891" type="curve" smooth="yes"/>
      <point x="103.174" y="478.304"/>
      <point x="115.739" y="488.217"/>
      <point x="170.065" y="488.217" type="curve" smooth="yes"/>
      <point x="287.804" y="488.217" type="line"/>
      <point x="287.804" y="469.196" type="line" smooth="yes"/>
      <point x="287.804" y="439.37"/>
      <point x="284.804" y="417.261"/>
      <point x="276.978" y="398.783" type="curve" smooth="yes"/>
      <point x="263.696" y="368.652"/>
      <point x="226.63" y="365.109"/>
    </contour>
  </outline>
</glyph>
<glyph name="degree" format="2">
  <advance width="389.34783"/>
  <unicode hex="00B0"/>
  <outline>
    <contour>
      <point x="194.63" y="397" type="curve" smooth="yes"/>
      <point x="320.043" y="397"/>
      <point x="326.413" y="431.152"/>
      <point x="326.413" y="546" type="curve" smooth="yes"/>
      <point x="326.413" y="660.304"/>
      <point x="320.043" y="696"/>
      <point x="194.63" y="696" type="curve" smooth="yes"/>
      <point x="69.761" y="696"/>
      <point x="62.935" y="660.304"/>
      <point x="62.935" y="546" type="curve" smooth="yes"/>
      <point x="62.935" y="431.152"/>
      <point x="69.761" y="397"/>
    </contour>
    <contour>
      <point x="194.63" y="443.217" type="curve" smooth="yes"/>
      <point x="119.761" y="443.217"/>
      <point x="119.761" y="459.5"/>
      <point x="119.761" y="546" type="curve" smooth="yes"/>
      <point x="119.761" y="632.5"/>
      <point x="119.761" y="649.239"/>
      <point x="194.63" y="649.239" type="curve" smooth="yes"/>
      <point x="269.043" y="649.239"/>
      <point x="269.043" y="632.5"/>
      <point x="269.043" y="546" type="curve" smooth="yes"/>
      <point x="269.043" y="459.5"/>
      <point x="269.043" y="443.217"/>
    </contour>
  </outline>
</glyph>
<glyph name="cedilla" format="2">
  <advance width="123.5"/>
  <unicode hex="00B8"/>
  <outline>
    <contour>
      <point x="0" y="-190" type="line"/>
      <point x="80.761" y="-190" type="line"/>
      <point x="123.5" y="13" type="line"/>
      <point x="123.5" y="18" type="line"/>
      <point x="68.152" y="18" type="line"/>
      <point x="0" y="-185" type="line"/>
    </contour>
  </outline>
</glyph>
<glyph name="breve" format="2">
  <advance width="275.47826"/>
  <unicode hex="02D8"/>
  <outline>
    <contour>
      <point x="136.696" y="585.587" type="curve" smooth="yes"/>
      <point x="267.413" y="585.587"/>
      <point x="275.478" y="645.674"/>
      <point x="275.478" y="729.848" type="curve"/>
      <point x="222.196" y="729.848" type="line"/>
      <point x="222.196" y="669.522"/>
      <point x="220.196" y="636.957"/>
      <point x="136.696" y="636.957" type="curve" smooth="yes"/>
      <point x="53.196" y="636.957"/>
      <point x="52.739" y="669.522"/>
      <point x="52.739" y="729.848" type="curve"/>
      <point x="0" y="729.848" type="line"/>
      <point x="0" y="645.674"/>
      <point x="6.522" y="585.587"/>
    </contour>
  </outline>
</glyph>
<glyph name="tildecomb" format="2">
  <advance width="341.47826"/>
  <unicode hex="0303"/>
  <anchor x="171.783" y="510" name="_top"/>
  <anchor x="171.783" y="688" name="top"/>
  <outline>
    <contour>
      <point x="0" y="601.978" type="curve"/>
      <point x="47.652" y="601.978" type="line"/>
      <point x="47.652" y="642.63"/>
      <point x="49.935" y="656.37"/>
      <point x="78.848" y="656.37" type="curve" smooth="yes"/>
      <point x="104.326" y="656.37"/>
      <point x="131.239" y="646.543"/>
      <point x="159.152" y="637.174" type="curve" smooth="yes"/>
      <point x="194.978" y="625.348"/>
      <point x="228.065" y="612.978"/>
      <point x="268.065" y="612.978" type="curve" smooth="yes"/>
      <point x="334.196" y="612.978"/>
      <point x="341.478" y="648.848"/>
      <point x="341.478" y="727" type="curve"/>
      <point x="294.37" y="727" type="line"/>
      <point x="294.37" y="686.348"/>
      <point x="292.087" y="672.609"/>
      <point x="263.174" y="672.609" type="curve" smooth="yes"/>
      <point x="236.065" y="672.609"/>
      <point x="210.783" y="682.435"/>
      <point x="182.87" y="691.804" type="curve" smooth="yes"/>
      <point x="147.043" y="703.63"/>
      <point x="110.957" y="716"/>
      <point x="73.957" y="716" type="curve" smooth="yes"/>
      <point x="7.283" y="716"/>
      <point x="0" y="680.13"/>
    </contour>
  </outline>
</glyph>
<glyph name="dieresiscomb" format="2">
  <advance width="283.43478"/>
  <unicode hex="0308"/>
  <anchor x="142.217" y="510" name="_top"/>
  <anchor x="142.217" y="675" name="top"/>
  <outline>
    <contour>
      <point x="0" y="627.717" type="line"/>
      <point x="76.696" y="627.717" type="line"/>
      <point x="76.696" y="708.283" type="line"/>
      <point x="0" y="708.283" type="line"/>
    </contour>
    <contour>
      <point x="206.739" y="627.717" type="line"/>
      <point x="283.435" y="627.717" type="line"/>
      <point x="283.435" y="708.283" type="line"/>
      <point x="206.739" y="708.283" type="line"/>
    </contour>
  </outline>
</glyph>
<glyph name="Germandbls" format="2">
  <advance width="715.45652"/>
  <unicode hex="1E9E"/>
  <anchor x="367.239" y="0" name="bottom"/>
  <anchor x="367.239" y="688" name="top"/>
  <outline>
    <contour>
      <point x="413.721" y="-8" type="curve" smooth="yes"/>
      <point x="579.004" y="-8"/>
      <point x="643.456" y="52.174"/>
      <point x="643.381" y="181.946" type="curve" smooth="yes"/>
      <point x="643.456" y="322.745"/>
      <point x="585.239" y="373.783"/>
      <point x="448.598" y="373.783" type="curve" smooth="yes"/>
      <point x="395.685" y="373.783" type="line"/>
      <point x="403.772" y="345.022" type="line"/>
      <point x="597.794" y="594.283" type="line"/>
      <point x="597.794" y="657.609" type="line"/>
      <point x="537.537" y="678.891"/>
      <point x="439.377" y="696"/>
      <point x="344.265" y="696" type="curve" smooth="yes"/>
      <point x="136.058" y="696"/>
      <point x="91.413" y="638.408"/>
      <point x="91.413" y="368.609" type="curve" smooth="yes"/>
      <point x="91.413" y="0" type="line"/>
      <point x="177.413" y="0" type="line"/>
      <point x="177.413" y="344" type="line" smooth="yes"/>
      <point x="177.413" y="594.109"/>
      <point x="192.099" y="621.783"/>
      <point x="363.887" y="621.783" type="curve" smooth="yes"/>
      <point x="417.228" y="621.783"/>
      <point x="468.402" y="615.5"/>
      <point x="530.925" y="598.283" type="curve"/>
      <point x="528.403" y="631.674" type="line"/>
      <point x="325.185" y="371.935" type="line"/>
      <point x="325.185" y="311.348" type="line"/>
      <point x="437.207" y="311.348" type="line" smooth="yes"/>
      <point x="524.608" y="311.348"/>
      <point x="556.369" y="279.391"/>
      <point x="556.294" y="187.798" type="curve" smooth="yes"/>
      <point x="556.369" y="93.397"/>
      <point x="523.412" y="66.217"/>
      <point x="408.31" y="66.217" type="curve" smooth="yes"/>
      <point x="371.366" y="66.217"/>
      <point x="312.249" y="71.217"/>
      <point x="263.403" y="78.217" type="curve"/>
      <point x="263.403" y="9.261" type="line"/>
      <point x="303.14" y="-0.37"/>
      <point x="367.296" y="-8"/>
    </contour>
  </outline>
</glyph>
<glyph name="literSign" format="2">
  <advance width="475.13043"/>
  <unicode hex="2113"/>
  <outline>
    <contour>
      <point x="264.413" y="-5.913" type="curve" smooth="yes"/>
      <point x="315.783" y="-5.913"/>
      <point x="358.435" y="11.761"/>
      <point x="403.174" y="40.63" type="curve"/>
      <point x="403.174" y="122.761" type="line"/>
      <point x="342.457" y="82.348"/>
      <point x="307.152" y="68.304"/>
      <point x="270.674" y="68.304" type="curve" smooth="yes"/>
      <point x="205.174" y="68.304"/>
      <point x="177.087" y="117.826"/>
      <point x="177.087" y="333.587" type="curve" smooth="yes"/>
      <point x="177.087" y="524.848"/>
      <point x="201.63" y="619.152"/>
      <point x="277" y="619.152" type="curve" smooth="yes"/>
      <point x="313.891" y="619.152"/>
      <point x="331.283" y="596.304"/>
      <point x="331.283" y="553.065" type="curve" smooth="yes"/>
      <point x="331.283" y="434.457"/>
      <point x="249.478" y="296.717"/>
      <point x="122.217" y="243.283" type="curve" smooth="yes"/>
      <point x="93.587" y="233"/>
      <point x="62.957" y="226.261"/>
      <point x="31.413" y="223.522" type="curve"/>
      <point x="31.413" y="148.848" type="line"/>
      <point x="69.217" y="151.587"/>
      <point x="105.652" y="158.87"/>
      <point x="140.087" y="169.696" type="curve" smooth="yes"/>
      <point x="303.826" y="230.304"/>
      <point x="411.848" y="401.457"/>
      <point x="411.848" y="551.891" type="curve" smooth="yes"/>
      <point x="411.848" y="638.217"/>
      <point x="365.696" y="693.37"/>
      <point x="284.152" y="693.37" type="curve" smooth="yes"/>
      <point x="141.478" y="693.37"/>
      <point x="91.087" y="567.5"/>
      <point x="91.087" y="327.065" type="curve" smooth="yes"/>
      <point x="91.087" y="79.913"/>
      <point x="141.391" y="-5.913"/>
    </contour>
  </outline>
</glyph>
<glyph name="upDownbaseArrow" format="2">
  <advance width="395"/>
  <unicode hex="21A8"/>
  <outline>
    <contour>
      <point x="198" y="-85" type="line"/>
      <point x="326.304" y="186.304" type="line"/>
      <point x="230.217" y="148.739" type="line"/>
      <point x="230.217" y="461.804" type="line"/>
      <point x="326.304" y="424.696" type="line"/>
      <point x="198" y="696" type="line"/>
      <point x="68.696" y="424.696" type="line"/>
      <point x="165.783" y="461.804" type="line"/>
      <point x="165.783" y="148.739" type="line"/>
      <point x="68.696" y="186.304" type="line"/>
    </contour>
    <contour>
      <point x="55" y="-183.652" type="line"/>
      <point x="340" y="-183.652" type="line"/>
      <point x="340" y="-123.565" type="line"/>
      <point x="55" y="-123.565" type="line"/>
    </contour>
  </outline>
</glyph>
<glyph name="minus" format="2">
  <advance width="540"/>
  <unicode hex="2212"/>
  <outline>
    <contour>
      <point x="70" y="219.609" type="line"/>
      <point x="470" y="219.609" type="line"/>
      <point x="470" y="285.848" type="line"/>
      <point x="70" y="285.848" type="line"/>
    </contour>
  </outline>
</glyph>
<glyph name="house" format="2">
  <advance width="743.54348"/>
  <unicode hex="2302"/>
  <outline>
    <contour>
      <point x="55.109" y="0" type="line"/>
      <point x="688.435" y="0" type="line"/>
      <point x="688.978" y="412.065" type="line"/>
      <point x="403.957" y="695.087" type="line"/>
      <point x="339.587" y="695.087" type="line"/>
      <point x="54.565" y="412.065" type="line"/>
    </contour>
    <contour>
      <point x="119.37" y="55.283" type="line"/>
      <point x="118.826" y="391.283" type="line"/>
      <point x="372" y="643.087" type="line"/>
      <point x="624.717" y="391.283" type="line"/>
      <point x="624.174" y="55.283" type="line"/>
    </contour>
  </outline>
</glyph>
<glyph name="A.ss01" format="2">
  <advance width="708.30435"/>
  <anchor x="354.652" y="0" name="bottom"/>
  <anchor x="616.348" y="0" name="ogonek"/>
  <anchor x="354.652" y="688" name="top"/>
  <outline>
    <contour>
      <point x="91.413" y="0" type="line"/>
      <point x="177.413" y="0" type="line"/>
      <point x="177.413" y="240.304" type="line"/>
      <point x="530.348" y="240.304" type="line"/>
      <point x="530.348" y="0" type="line"/>
      <point x="616.348" y="0" type="line"/>
      <point x="616.348" y="387.478" type="line" smooth="yes"/>
      <point x="616.348" y="635.63"/>
      <point x="589.826" y="696"/>
      <point x="353.652" y="696" type="curve" smooth="yes"/>
      <point x="117.478" y="696"/>
      <point x="91.413" y="635.63"/>
      <point x="91.413" y="387.478" type="curve" smooth="yes"/>
    </contour>
    <contour>
      <point x="177.413" y="317.239" type="line"/>
      <point x="177.413" y="420.739" type="line" smooth="yes"/>
      <point x="177.413" y="587.826"/>
      <point x="186.065" y="621.783"/>
      <point x="353.652" y="621.783" type="curve" smooth="yes"/>
      <point x="521.239" y="621.783"/>
      <point x="530.348" y="587.826"/>
      <point x="530.348" y="420.739" type="curve" smooth="yes"/>
      <point x="530.348" y="317.239" type="line"/>
    </contour>
  </outline>
</glyph>
<glyph name="M.001" format="2">
  <advance width="926"/>
  <anchor x="433" y="0" name="bottom"/>
  <anchor x="433" y="688" name="top"/>
  <outline>
    <contour>
      <point x="100" y="0" type="line"/>
      <point x="182" y="0" type="line"/>
      <point x="182" y="592" type="line"/>
      <point x="186" y="592" type="line"/>
      <point x="421" y="0" type="line"/>
      <point x="505" y="0" type="line"/>
      <point x="740" y="592" type="line"/>
      <point x="744" y="592" type="line"/>
      <point x="744" y="0" type="line"/>
      <point x="826" y="0" type="line"/>
      <point x="826" y="688" type="line"/>
      <point x="700" y="688" type="line"/>
      <point x="465" y="96" type="line"/>
      <point x="461" y="96" type="line"/>
      <point x="226" y="688" type="line"/>
      <point x="100" y="688" type="line"/>
    </contour>
  </outline>
</glyph>
<glyph name="Y.001" format="2">
  <advance width="684"/>
  <anchor x="263" y="0" name="bottom"/>
  <anchor x="263" y="688" name="top"/>
  <anchor x="-30" y="688" name="topleft"/>
  <outline>
    <contour>
      <point x="301" y="0" type="line"/>
      <point x="383" y="0" type="line"/>
      <point x="383" y="293" type="line"/>
      <point x="378" y="259" type="line"/>
      <point x="674" y="688" type="line"/>
      <point x="578" y="688" type="line"/>
      <point x="344" y="340" type="line"/>
      <point x="340" y="340" type="line"/>
      <point x="106" y="688" type="line"/>
      <point x="10" y="688" type="line"/>
      <point x="306" y="259" type="line"/>
      <point x="301" y="293" type="line"/>
    </contour>
  </outline>
</glyph>
<glyph name="Z.001" format="2">
  <advance width="593"/>
  <anchor x="292" y="0" name="bottom"/>
  <anchor x="292" y="344" name="center"/>
  <anchor x="292" y="688" name="top"/>
  <outline>
    <contour>
      <point x="50" y="0" type="line"/>
      <point x="543" y="0" type="line"/>
      <point x="543" y="74" type="line"/>
      <point x="158" y="74" type="line"/>
      <point x="537" y="622" type="line"/>
      <point x="537" y="688" type="line"/>
      <point x="61" y="688" type="line"/>
      <point x="61" y="614" type="line"/>
      <point x="429" y="614" type="line"/>
      <point x="50" y="66" type="line"/>
    </contour>
  </outline>
</glyph>
<glyph name="_tail.Q" format="2">
  <advance width="152"/>
  <anchor x="61" y="10" name="_bottom"/>
  <outline>
    <contour>
      <point x="20" y="10" type="line"/>
      <point x="50" y="-146" type="line"/>
      <point x="132" y="-146" type="line"/>
      <point x="102" y="10" type="line"/>
    </contour>
  </outline>
</glyph>
<glyph name="acute.case.loclPLK" format="2">
  <advance width="138.86956"/>
  <anchor x="35.217" y="688" name="_top"/>
  <anchor x="38.565" y="828" name="top"/>
  <outline>
    <contour>
      <point x="0" y="747.283" type="line"/>
      <point x="60.152" y="747.283" type="line"/>
      <point x="138.87" y="883" type="line"/>
      <point x="138.87" y="888" type="line"/>
      <point x="51.022" y="888" type="line"/>
      <point x="0" y="752.283" type="line"/>
    </contour>
  </outline>
</glyph>
<glyph name="bracketright.ss02" format="2">
  <advance width="397"/>
  <outline>
    <contour>
      <point x="0" y="0" type="line"/>
      <point x="352" y="0" type="line"/>
      <point x="352" y="348" type="line" smooth="yes"/>
      <point x="352" y="553"/>
      <point x="207" y="696"/>
      <point x="0" y="696" type="curve"/>
    </contour>
  </outline>
</glyph>
<glyph name="brevecomb_tildecomb.case" format="2">
  <advance width="275.47826"/>
  <anchor x="138.239" y="510" name="_top"/>
  <anchor x="138.239" y="860.283" name="top"/>
  <outline>
    <contour>
      <point x="136.696" y="585.587" type="curve" smooth="yes"/>
      <point x="267.413" y="585.587"/>
      <point x="275.478" y="645.674"/>
      <point x="275.478" y="729.848" type="curve"/>
      <point x="222.196" y="729.848" type="line"/>
      <point x="222.196" y="669.522"/>
      <point x="220.196" y="636.957"/>
      <point x="136.696" y="636.957" type="curve" smooth="yes"/>
      <point x="53.196" y="636.957"/>
      <point x="52.739" y="669.522"/>
      <point x="52.739" y="729.848" type="curve"/>
      <point x="0" y="729.848" type="line"/>
      <point x="0" y="645.674"/>
      <point x="6.522" y="585.587"/>
    </contour>
    <contour>
      <point x="-32.457" y="774.261" type="curve"/>
      <point x="15.196" y="774.261" type="line"/>
      <point x="15.196" y="814.913"/>
      <point x="17.478" y="828.652"/>
      <point x="46.391" y="828.652" type="curve" smooth="yes"/>
      <point x="71.87" y="828.652"/>
      <point x="98.783" y="818.826"/>
      <point x="126.696" y="809.457" type="curve" smooth="yes"/>
      <point x="162.522" y="797.63"/>
      <point x="195.609" y="785.261"/>
      <point x="235.609" y="785.261" type="curve" smooth="yes"/>
      <point x="301.739" y="785.261"/>
      <point x="309.022" y="821.13"/>
      <point x="309.022" y="899.283" type="curve"/>
      <point x="261.913" y="899.283" type="line"/>
      <point x="261.913" y="858.63"/>
      <point x="259.63" y="844.891"/>
      <point x="230.717" y="844.891" type="curve" smooth="yes"/>
      <point x="203.609" y="844.891"/>
      <point x="178.326" y="854.717"/>
      <point x="150.413" y="864.087" type="curve" smooth="yes"/>
      <point x="114.587" y="875.913"/>
      <point x="78.5" y="888.283"/>
      <point x="41.5" y="888.283" type="curve" smooth="yes"/>
      <point x="-25.174" y="888.283"/>
      <point x="-32.457" y="852.413"/>
    </contour>
  </outline>
</glyph>
<glyph name="circumflexcomb_gravecomb" format="2">
  <advance width="289.34783"/>
  <anchor x="144.674" y="510" name="_top"/>
  <anchor x="146.674" y="861" name="top"/>
  <outline>
    <contour>
      <point x="0" y="594.587" type="line"/>
      <point x="55.804" y="594.587" type="line"/>
      <point x="144.13" y="691.174" type="line"/>
      <point x="233" y="594.587" type="line"/>
      <point x="289.348" y="594.587" type="line"/>
      <point x="289.348" y="600.674" type="line"/>
      <point x="187.239" y="735.304" type="line"/>
      <point x="101.565" y="735.304" type="line"/>
      <point x="0" y="600.674" type="line"/>
    </contour>
    <contour>
      <point x="142.848" y="772.587" type="line"/>
      <point x="203" y="772.587" type="line"/>
      <point x="203" y="777.587" type="line"/>
      <point x="101.978" y="912.848" type="line"/>
      <point x="14.13" y="912.848" type="line"/>
      <point x="14.13" y="907.848" type="line"/>
    </contour>
  </outline>
</glyph>
<glyph name="one.tosf" format="2">
  <advance width="620"/>
  <outline>
    <contour>
      <point x="115.848" y="0" type="line"/>
      <point x="540.783" y="0" type="line"/>
      <point x="540.783" y="67.87" type="line"/>
      <point x="376" y="67.87" type="line"/>
      <point x="376" y="585" type="line"/>
      <point x="318.109" y="585" type="line"/>
      <point x="113.565" y="494.717" type="line"/>
      <point x="113.565" y="426.478" type="line"/>
      <point x="293.174" y="495.717" type="line"/>
      <point x="293.174" y="67.87" type="line"/>
      <point x="115.848" y="67.87" type="line"/>
    </contour>
  </outline>
</glyph>
<glyph name="zero.numr" format="2">
  <advance width="388.1087"/>
  <outline>
    <contour>
      <point x="193.826" y="304" type="curve" smooth="yes"/>
      <point x="338.739" y="304"/>
      <point x="344" y="329.457"/>
      <point x="344" y="496.543" type="curve" smooth="yes"/>
      <point x="344" y="663.63"/>
      <point x="337.283" y="690.087"/>
      <point x="193.826" y="690.087" type="curve" smooth="yes"/>
      <point x="49.37" y="690.087"/>
      <point x="44.109" y="663.63"/>
      <point x="44.109" y="496.543" type="curve" smooth="yes"/>
      <point x="44.109" y="329.457"/>
      <point x="49.37" y="304"/>
    </contour>
    <contour>
      <point x="193.826" y="352.761" type="curve" smooth="yes"/>
      <point x="107.022" y="352.761"/>
      <point x="105.565" y="354.761"/>
      <point x="105.565" y="496.543" type="curve" smooth="yes"/>
      <point x="105.565" y="638.326"/>
      <point x="107.022" y="640.326"/>
      <point x="193.826" y="640.326" type="curve" smooth="yes"/>
      <point x="281.087" y="640.326"/>
      <point x="282.543" y="638.326"/>
      <point x="282.543" y="496.543" type="curve" smooth="yes"/>
      <point x="282.543" y="354.761"/>
      <point x="281.087" y="352.761"/>
    </contour>
  </outline>
</glyph>
